<?xml version="1.0" encoding="utf-8"?>
<!-- Generator: Adobe Illustrator 16.0.0, SVG Export Plug-In . SVG Version: 6.00 Build 0)  -->
<!DOCTYPE svg PUBLIC "-//W3C//DTD SVG 1.1//EN" "http://www.w3.org/Graphics/SVG/1.1/DTD/svg11.dtd">
<svg version="1.1" id="Capa_1" xmlns="http://www.w3.org/2000/svg" xmlns:xlink="http://www.w3.org/1999/xlink" x="0px" y="0px"
	 width="170px" height="34.32px" viewBox="0 0 170 34.32" enable-background="new 0 0 170 34.32" xml:space="preserve">
<g>
	<g>
		<g>
			<g enable-background="new    ">
				<g enable-background="new    ">
					<g>
						
							<linearGradient id="SVGID_2_" gradientUnits="userSpaceOnUse" x1="-668.6255" y1="600.7634" x2="-654.5205" y2="600.7634" gradientTransform="matrix(0.7219 -0.692 0.692 0.7219 65.8032 -879.4255)">
							<stop  offset="0" style="stop-color:#42498D"/>
							<stop  offset="1" style="stop-color:#5980B7"/>
						</linearGradient>
						<path id="SVGID_1_" fill="url(#SVGID_2_)" d="M6.741,4.803l0.242,0.253c0.694,0.661-0.474,3.788-1.81,7.442
							c-1.006,2.757-2.557,5.434-3.495,6.336c-0.238,0.225-0.434,0.339-0.577,0.315c-0.128-0.021-0.473-0.279-0.592-0.511
							c0.339,0.187,1.234,0.842,4.269-6.412C6.113,8.576,7.03,6.273,6.741,4.803z"/>
					</g>
					<g>
						<g>
							<defs>
								<path id="SVGID_3_" d="M6.741,4.803l0.242,0.253c0.694,0.661-0.474,3.788-1.81,7.442c-1.006,2.757-2.557,5.434-3.495,6.336
									c-0.238,0.225-0.434,0.339-0.577,0.315c-0.128-0.021-0.473-0.279-0.592-0.511c0.339,0.187,1.234,0.842,4.269-6.412
									C6.113,8.576,7.03,6.273,6.741,4.803z"/>
							</defs>
							<clipPath id="SVGID_5_">
								<use xlink:href="#SVGID_3_"  overflow="visible"/>
							</clipPath>
							<g clip-path="url(#SVGID_5_)" enable-background="new    ">
								<polyline fill="#416382" points="6.741,4.803 6.982,5.056 6.982,5.06 6.744,4.807 6.741,4.803 								"/>
							</g>
						</g>
					</g>
				</g>
			</g>
		</g>
		<g>
			<g enable-background="new    ">
				<g enable-background="new    ">
					<g>
						
							<linearGradient id="SVGID_6_" gradientUnits="userSpaceOnUse" x1="-671.1279" y1="605.5779" x2="-645.1104" y2="605.5779" gradientTransform="matrix(0.7219 -0.692 0.692 0.7219 65.8032 -879.4255)">
							<stop  offset="0" style="stop-color:#42498D"/>
							<stop  offset="1" style="stop-color:#5980B7"/>
						</linearGradient>
						<path id="SVGID_4_" fill="url(#SVGID_6_)" d="M16.543,1.43l0.238,0.252c0.213,0.218,0.313,0.541,0.311,0.829
							c-0.008,0.459-0.182,5.313-5.22,12.847c-1.455,2.175-3.198,4.081-4.75,5.57c-2.113,2.022-3.875,3.275-4.069,3.383
							c-0.297,0.159-0.527,0.088-0.723-0.114l-0.239-0.246c0.191,0.201,0.437,0.072,0.732-0.084c0.193-0.106,1.81-1.217,3.923-3.238
							c1.555-1.49,3.256-3.386,4.71-5.559C16.492,7.538,16.7,2.861,16.708,2.395C16.709,2.108,16.756,1.652,16.543,1.43z"/>
					</g>
				</g>
			</g>
		</g>
		<g>
			<g enable-background="new    ">
				<g enable-background="new    ">
					<g>
						
							<linearGradient id="SVGID_8_" gradientUnits="userSpaceOnUse" x1="-671.8726" y1="614.2029" x2="-649.5063" y2="614.2029" gradientTransform="matrix(0.7219 -0.692 0.692 0.7219 65.8032 -879.4255)">
							<stop  offset="0" style="stop-color:#42498D"/>
							<stop  offset="1" style="stop-color:#5980B7"/>
						</linearGradient>
						<path id="SVGID_7_" fill="url(#SVGID_8_)" d="M20.327,11.731l0.238,0.247c0.341,0.358,0.669,0.869,0.876,1.313
							c0.41,0.871,0.776,1.565,0.519,2.524c-0.244,0.887-1.365,2.656-3.38,4.584c-1.065,1.019-2.365,2.075-3.914,3.07
							c-4.501,2.895-8.34,4.146-9.744,4.021c-0.35-0.028-0.53-0.063-0.743-0.285l-0.241-0.252c0.213,0.224,0.457,0.129,0.805,0.162
							c1.406,0.124,5.066-1.122,9.563-4.015c1.55-0.998,2.893-2.097,3.954-3.111c2.012-1.93,3.05-3.584,3.293-4.474
							c0.261-0.956,0.118-1.313-0.297-2.193C21.052,12.883,20.666,12.084,20.327,11.731z"/>
					</g>
				</g>
			</g>
		</g>
		<g>
			<g enable-background="new    ">
				<g enable-background="new    ">
					<g>
						
							<linearGradient id="SVGID_9_" gradientUnits="userSpaceOnUse" x1="-671.7803" y1="619.7009" x2="-652.3647" y2="619.7009" gradientTransform="matrix(0.7219 -0.692 0.692 0.7219 65.8032 -879.4255)">
							<stop  offset="0" style="stop-color:#42498D"/>
							<stop  offset="1" style="stop-color:#5980B7"/>
						</linearGradient>
						<path id="SVGID_10_" fill="url(#SVGID_9_)" d="M24.446,20.158l0.241,0.252c0.765,0.798,1.513,2.479,1.115,3.254
							c-0.14,0.27-0.379,0.57-0.726,0.901c-1.177,1.126-3.584,2.571-7.367,3.905c-4.896,1.73-9.66,1.412-10.4,1.385
							c-0.336-0.012-0.552-0.096-0.645-0.194l-0.24-0.247c0.095,0.095,0.398,0.078,0.734,0.09c0.737,0.027,5.417,0.336,10.31-1.392
							c3.786-1.336,6.025-2.713,7.205-3.842c0.345-0.327,0.634-0.703,0.771-0.974C25.847,22.526,25.214,20.96,24.446,20.158z"/>
					</g>
				</g>
			</g>
		</g>
		
			<linearGradient id="SVGID_11_" gradientUnits="userSpaceOnUse" x1="-670.3545" y1="624.3572" x2="-655.2417" y2="624.3572" gradientTransform="matrix(0.7219 -0.692 0.692 0.7219 65.8032 -879.4255)">
			<stop  offset="0" style="stop-color:#42498D"/>
			<stop  offset="1" style="stop-color:#5980B7"/>
		</linearGradient>
		<path fill="url(#SVGID_11_)" d="M27.17,28.366c-4.486,4.304-10.556,5.504-15.984,3.608c-0.128-0.051-0.415-0.091-0.507-0.186
			l0.238,0.252c0.095,0.095,0.222,0.187,0.345,0.231c5.431,1.896,11.753,0.712,16.242-3.591c0.23-0.321,0.042-1.129-0.428-1.622
			l-0.242-0.249C27.305,27.307,27.405,28.047,27.17,28.366z"/>
		<g>
			<g enable-background="new    ">
				<g enable-background="new    ">
					<g>
						
							<linearGradient id="SVGID_12_" gradientUnits="userSpaceOnUse" x1="-648.2153" y1="613.1453" x2="-640.4297" y2="613.1453" gradientTransform="matrix(0.7219 -0.692 0.692 0.7219 65.8032 -879.4255)">
							<stop  offset="0" style="stop-color:#343232"/>
							<stop  offset="1" style="stop-color:#030104"/>
						</linearGradient>
						<path id="SVGID_14_" fill="url(#SVGID_12_)" d="M26.03,4.563l0.241,0.252c0.519,0.544,0.684,1.03,0.622,1.505
							c-0.064,0.479-1.219,5.563-2.374,6.673c-0.134,0.129-0.267,0.201-0.401,0.213c-0.384,0.021-0.919-0.345-1.459-0.908
							l-0.239-0.252c0.541,0.565,1.051,0.859,1.435,0.835c0.131-0.011,0.28-0.098,0.412-0.224c1.16-1.11,2.217-6.093,2.281-6.572
							C26.606,5.614,26.551,5.11,26.03,4.563z"/>
					</g>
				</g>
			</g>
		</g>
		<g>
			<g enable-background="new    ">
				<g enable-background="new    ">
					<g>
						
							<linearGradient id="SVGID_13_" gradientUnits="userSpaceOnUse" x1="-651.7471" y1="620.8416" x2="-640.938" y2="620.8416" gradientTransform="matrix(0.7219 -0.692 0.692 0.7219 65.8032 -879.4255)">
							<stop  offset="0" style="stop-color:#343232"/>
							<stop  offset="1" style="stop-color:#030104"/>
						</linearGradient>
						<path id="SVGID_17_" fill="url(#SVGID_13_)" d="M30.062,9.504L30.3,9.753c0.306,0.316,0.639,0.808,0.942,1.418
							c0.409,0.83,1.02,2.266,0.891,3.736c-0.218,2.574-1.749,4.979-3.079,6.257c-0.617,0.588-1.192,0.939-1.575,0.952
							c-0.188,0.009-0.432-0.134-0.678-0.396l-0.244-0.252c0.252,0.262,0.474,0.303,0.658,0.294c0.384-0.015,0.934-0.339,1.55-0.93
							c1.331-1.279,2.763-3.579,2.985-6.155c0.123-1.474-0.432-2.854-0.838-3.682C30.609,10.38,30.364,9.82,30.062,9.504z"/>
					</g>
				</g>
			</g>
		</g>
		
			<linearGradient id="SVGID_15_" gradientUnits="userSpaceOnUse" x1="-653.6104" y1="627.4666" x2="-647.1709" y2="627.4666" gradientTransform="matrix(0.7219 -0.692 0.692 0.7219 65.8032 -879.4255)">
			<stop  offset="0" style="stop-color:#343232"/>
			<stop  offset="1" style="stop-color:#030104"/>
		</linearGradient>
		<path fill="url(#SVGID_15_)" d="M29.185,26.302c-0.003,0.007-0.008,0.015-0.017,0.021c-0.05,0.052-0.193,0.146-0.428,0.055
			c-0.057-0.021-0.116-0.064-0.177-0.13l0.238,0.252c0.058,0.063,0.12,0.105,0.176,0.13c0.238,0.096,0.378-0.007,0.432-0.057
			c0.008-0.006,0.014-0.012,0.017-0.018c1.314-1.809,2.208-3.827,2.673-5.918l-0.241-0.254
			C31.393,22.481,30.502,24.499,29.185,26.302z"/>
		<g>
			
				<linearGradient id="SVGID_16_" gradientUnits="userSpaceOnUse" x1="-668.6289" y1="600.3982" x2="-654.521" y2="600.3982" gradientTransform="matrix(0.7219 -0.692 0.692 0.7219 65.8032 -879.4255)">
				<stop  offset="0" style="stop-color:#4C5F9C"/>
				<stop  offset="1" style="stop-color:#73B1CB"/>
			</linearGradient>
			<path fill="url(#SVGID_16_)" d="M5.368,5.589c0.274-0.268,0.561-0.521,0.854-0.763C6.455,4.719,6.637,4.703,6.74,4.803
				c0.699,0.661-0.467,3.795-1.807,7.449c-1.009,2.754-2.562,5.432-3.497,6.333c-0.238,0.225-0.435,0.341-0.575,0.315
				c-0.132-0.021-0.351-0.101-0.378-0.36C0.016,13.909,1.708,9.094,5.368,5.589z"/>
		</g>
		<g>
			
				<linearGradient id="SVGID_18_" gradientUnits="userSpaceOnUse" x1="-671.126" y1="604.1238" x2="-645.1118" y2="604.1238" gradientTransform="matrix(0.7219 -0.692 0.692 0.7219 65.8032 -879.4255)">
				<stop  offset="0" style="stop-color:#4C5F9C"/>
				<stop  offset="1" style="stop-color:#73B1CB"/>
			</linearGradient>
			<path fill="url(#SVGID_18_)" d="M12.483,1.78c0.095-0.092,0.213-0.159,0.37-0.198c0.575-0.141,2.55-0.358,2.981-0.403
				c0.682-0.069,1.026,0.563,1.018,1.085c-0.003,0.462-0.185,5.313-5.221,12.849c-1.452,2.172-3.198,4.074-4.75,5.564
				c-2.113,2.022-3.873,3.278-4.069,3.386c-0.566,0.303-0.902-0.231-1.177-0.932c-0.193-0.499-0.311-0.841-0.067-1.144
				c0.149-0.187,3.974-3.624,6.561-8.277c2.539-4.573,3.601-9.566,3.797-10.396C12.077,2.68,12.158,2.092,12.483,1.78z"/>
		</g>
		<g>
			
				<linearGradient id="SVGID_19_" gradientUnits="userSpaceOnUse" x1="-671.8701" y1="613.6521" x2="-649.5054" y2="613.6521" gradientTransform="matrix(0.7219 -0.692 0.692 0.7219 65.8032 -879.4255)">
				<stop  offset="0" style="stop-color:#4C5F9C"/>
				<stop  offset="1" style="stop-color:#73B1CB"/>
			</linearGradient>
			<path fill="url(#SVGID_19_)" d="M3.704,26.129c0.221-0.218,1.452-0.712,3.083-1.59c1.631-0.875,3.663-2.138,5.479-3.879
				c0.162-0.157,0.325-0.319,0.485-0.482c5.523-5.699,6.022-8.261,6.563-8.782c0.022-0.021,0.05-0.045,0.073-0.057
				c0.527-0.316,1.407,0.824,1.818,1.704c0.41,0.875,0.78,1.566,0.516,2.524c-0.24,0.887-1.367,2.653-3.379,4.584
				c-1.059,1.019-2.365,2.076-3.915,3.071c-4.503,2.896-8.339,4.143-9.744,4.021c-0.401-0.037-0.581-0.077-0.843-0.405
				C3.575,26.511,3.603,26.259,3.704,26.129z"/>
		</g>
		<g>
			
				<linearGradient id="SVGID_20_" gradientUnits="userSpaceOnUse" x1="-648.2148" y1="610.7654" x2="-640.4307" y2="610.7654" gradientTransform="matrix(0.7219 -0.692 0.692 0.7219 65.8032 -879.4255)">
				<stop  offset="0" style="stop-color:#777679"/>
				<stop  offset="1" style="stop-color:#3C3B3B"/>
			</linearGradient>
			<path fill="url(#SVGID_20_)" d="M21.56,2.736c0.373-0.355,1.186-0.357,2.8,0.589c1.844,1.084,2.401,1.941,2.295,2.746
				c-0.064,0.478-1.218,5.561-2.376,6.67c-0.132,0.129-0.269,0.204-0.4,0.213c-1.183,0.075-3.769-3.549-3.674-5.246
				c0.099-1.688,1.035-4.467,1.217-4.792C21.459,2.848,21.504,2.786,21.56,2.736z"/>
		</g>
		<g>
			
				<linearGradient id="SVGID_21_" gradientUnits="userSpaceOnUse" x1="-671.7764" y1="619.447" x2="-652.3657" y2="619.447" gradientTransform="matrix(0.7219 -0.692 0.692 0.7219 65.8032 -879.4255)">
				<stop  offset="0" style="stop-color:#4C5F9C"/>
				<stop  offset="1" style="stop-color:#73B1CB"/>
			</linearGradient>
			<path fill="url(#SVGID_21_)" d="M6.422,29.189c0.037-0.034,0.089-0.063,0.171-0.087c0.457-0.138,5.621-1.813,9.401-3.695
				c3.778-1.883,6.855-5.297,7.536-5.649c0.818-0.423,2.606,2.546,2.032,3.66c-0.138,0.265-0.378,0.565-0.723,0.896
				c-1.177,1.133-3.584,2.572-7.37,3.912c-4.893,1.728-9.659,1.406-10.394,1.382C6.492,29.585,6.262,29.347,6.422,29.189z"/>
		</g>
		<g>
			
				<linearGradient id="SVGID_22_" gradientUnits="userSpaceOnUse" x1="-651.7485" y1="620.2673" x2="-640.9395" y2="620.2673" gradientTransform="matrix(0.7219 -0.692 0.692 0.7219 65.8032 -879.4255)">
				<stop  offset="0" style="stop-color:#777679"/>
				<stop  offset="1" style="stop-color:#3C3B3B"/>
			</linearGradient>
			<path fill="url(#SVGID_22_)" d="M29.252,9.173c0.314-0.3,1.101,0.439,1.751,1.752c0.409,0.824,1.014,2.259,0.894,3.732
				c-0.221,2.572-1.751,4.978-3.085,6.254c-0.614,0.592-1.191,0.941-1.572,0.957c-0.827,0.029-2.771-2.888-1.146-5.417
				c1.625-2.533,2.839-6.661,3.091-7.183C29.205,9.232,29.227,9.199,29.252,9.173z"/>
		</g>
		<g>
			
				<linearGradient id="SVGID_23_" gradientUnits="userSpaceOnUse" x1="-670.3545" y1="624.0085" x2="-655.2466" y2="624.0085" gradientTransform="matrix(0.7219 -0.692 0.692 0.7219 65.8032 -879.4255)">
				<stop  offset="0" style="stop-color:#4C5F9C"/>
				<stop  offset="1" style="stop-color:#73B1CB"/>
			</linearGradient>
			<path fill="url(#SVGID_23_)" d="M10.569,31.407c0.059-0.055,0.177-0.081,0.375-0.064c0.757,0.064,3.265,0.479,8.271-0.733
				c2.925-0.711,4.553-2.1,5.57-3.075c0.106-0.1,0.199-0.191,0.286-0.28c0.092-0.091,0.182-0.174,0.263-0.253
				c0.41-0.394,0.696-0.618,0.951-0.541c0.854,0.268,1.286,1.55,0.975,1.978c-4.487,4.304-10.809,5.486-16.236,3.593
				C10.718,31.907,10.412,31.558,10.569,31.407z"/>
		</g>
		<g>
			
				<linearGradient id="SVGID_24_" gradientUnits="userSpaceOnUse" x1="-653.6079" y1="627.1628" x2="-647.1709" y2="627.1628" gradientTransform="matrix(0.7219 -0.692 0.692 0.7219 65.8032 -879.4255)">
				<stop  offset="0" style="stop-color:#777679"/>
				<stop  offset="1" style="stop-color:#3C3B3B"/>
			</linearGradient>
			<path fill="url(#SVGID_24_)" d="M31.295,20.562c0.284-0.267,0.563-0.178,0.563-0.178c-0.465,2.098-1.356,4.114-2.673,5.918
				c-0.003,0.007-0.008,0.015-0.017,0.021c-0.05,0.052-0.193,0.146-0.428,0.055c-0.306-0.121-0.769-0.926-0.497-1.697
				c0.272-0.773,2.677-3.666,2.976-4.035C31.248,20.616,31.27,20.586,31.295,20.562z"/>
		</g>
		<g>
			
				<linearGradient id="SVGID_25_" gradientUnits="userSpaceOnUse" x1="-108.4019" y1="777.8582" x2="-101.6299" y2="777.8582" gradientTransform="matrix(0.993 -0.1179 0.1179 0.993 16.0766 -772.2112)">
				<stop  offset="0" style="stop-color:#FFFFFF;stop-opacity:0.5"/>
				<stop  offset="0.0856" style="stop-color:#FFFFFF;stop-opacity:0.4658"/>
				<stop  offset="1" style="stop-color:#FFFFFF;stop-opacity:0.1"/>
			</linearGradient>
			<path fill="url(#SVGID_25_)" d="M6.385,8.119C5.314,7.991,4.351,7.825,3.541,7.663c-1.791,2.406-2.83,5.204-3.074,8.048
				c0.541,0.711,1.118,1.355,1.734,1.943c0.886-1.261,1.965-3.313,2.732-5.401C5.488,10.737,6.01,9.316,6.385,8.119z"/>
			
				<linearGradient id="SVGID_26_" gradientUnits="userSpaceOnUse" x1="-105.1411" y1="780.4216" x2="-92.5991" y2="780.4216" gradientTransform="matrix(0.993 -0.1179 0.1179 0.993 16.0766 -772.2112)">
				<stop  offset="0" style="stop-color:#FFFFFF;stop-opacity:0.5"/>
				<stop  offset="0.0856" style="stop-color:#FFFFFF;stop-opacity:0.4658"/>
				<stop  offset="1" style="stop-color:#FFFFFF;stop-opacity:0.1"/>
			</linearGradient>
			<path fill="url(#SVGID_26_)" d="M15.459,7.954c-1.707,0.302-3.391,0.42-4.975,0.42c-0.577,1.652-1.354,3.53-2.356,5.335
				c-1.216,2.187-2.707,4.108-3.957,5.548c0.841,0.578,1.731,1.072,2.648,1.476c0.023-0.018,0.045-0.039,0.062-0.057
				c1.552-1.49,3.298-3.395,4.75-5.564C13.492,12.331,14.683,9.918,15.459,7.954z"/>
			
				<linearGradient id="SVGID_27_" gradientUnits="userSpaceOnUse" x1="-87.8867" y1="776.0974" x2="-81.2168" y2="776.0974" gradientTransform="matrix(0.993 -0.1179 0.1179 0.993 16.0766 -772.2112)">
				<stop  offset="0" style="stop-color:#FFFFFF;stop-opacity:0.1"/>
				<stop  offset="1" style="stop-color:#FFFFFF;stop-opacity:0"/>
			</linearGradient>
			<path fill="url(#SVGID_27_)" d="M24.956,3.7c-1.443,1.198-2.993,2.115-4.587,2.803c-0.081,0.429-0.143,0.847-0.166,1.205
				c-0.095,1.698,2.492,5.321,3.674,5.246c0.132-0.009,0.269-0.084,0.4-0.213c1.158-1.11,2.312-6.193,2.376-6.67
				C26.747,5.359,26.323,4.608,24.956,3.7z"/>
			
				<linearGradient id="SVGID_28_" gradientUnits="userSpaceOnUse" x1="-98.897" y1="783.6892" x2="-87.1021" y2="783.6892" gradientTransform="matrix(0.993 -0.1179 0.1179 0.993 16.0766 -772.2112)">
				<stop  offset="0" style="stop-color:#FFFFFF;stop-opacity:0.5"/>
				<stop  offset="0.0856" style="stop-color:#FFFFFF;stop-opacity:0.4658"/>
				<stop  offset="1" style="stop-color:#FFFFFF;stop-opacity:0.1"/>
			</linearGradient>
			<path fill="url(#SVGID_28_)" d="M21.204,13.043c-0.412-0.88-1.292-2.021-1.818-1.704c-0.022,0.012-0.051,0.034-0.073,0.057
				c-0.541,0.521-1.04,3.083-6.563,8.782c-0.16,0.163-0.323,0.325-0.485,0.482c-0.485,0.465-0.981,0.891-1.486,1.288
				c1.651,0.306,3.355,0.396,5.056,0.306c0.947-0.696,1.782-1.409,2.505-2.103c2.012-1.932,3.139-3.698,3.379-4.584
				C21.983,14.61,21.613,13.918,21.204,13.043z"/>
			
				<linearGradient id="SVGID_29_" gradientUnits="userSpaceOnUse" x1="-87.7559" y1="787.9265" x2="-85.0796" y2="787.9265" gradientTransform="matrix(0.993 -0.1179 0.1179 0.993 16.0766 -772.2112)">
				<stop  offset="0" style="stop-color:#FFFFFF;stop-opacity:0.5"/>
				<stop  offset="1" style="stop-color:#FFFFFF;stop-opacity:0.1"/>
			</linearGradient>
			<path fill="url(#SVGID_29_)" d="M23.53,19.757c-0.25,0.13-0.824,0.667-1.627,1.392c0.879-0.271,1.742-0.589,2.583-0.946
				C24.141,19.824,23.785,19.626,23.53,19.757z"/>
			
				<linearGradient id="SVGID_30_" gradientUnits="userSpaceOnUse" x1="-83.9414" y1="782.489" x2="-76.9673" y2="782.489" gradientTransform="matrix(0.993 -0.1179 0.1179 0.993 16.0766 -772.2112)">
				<stop  offset="0" style="stop-color:#FFFFFF;stop-opacity:0.1"/>
				<stop  offset="1" style="stop-color:#FFFFFF;stop-opacity:0"/>
			</linearGradient>
			<path fill="url(#SVGID_30_)" d="M31.004,10.925c-0.65-1.313-1.438-2.052-1.751-1.752c-0.025,0.025-0.048,0.06-0.067,0.097
				c-0.252,0.521-1.466,4.646-3.091,7.183c-0.701,1.096-0.736,2.264-0.481,3.233c2.348-1.139,4.47-2.602,6.184-4.303
				c0.045-0.237,0.076-0.479,0.101-0.726C32.018,13.183,31.413,11.749,31.004,10.925z"/>
		</g>
	</g>
	<path fill="#1a1a1a" d="M59.17,22.306v3.987H34.353V8.026H59.17v3.997H37.326v3.125H59.17v3.99H37.326v3.168H59.17z"/>
	<path fill="#1a1a1a" d="M82.729,22.312c0.28,0,0.53-0.115,0.745-0.344c0.216-0.227,0.326-0.588,0.326-1.094v-0.338
		c0-0.523-0.09-0.889-0.267-1.09c-0.176-0.203-0.437-0.305-0.779-0.305H64.747c-0.373,0-0.729-0.088-1.068-0.268
		c-0.341-0.174-0.642-0.428-0.896-0.77c-0.255-0.342-0.457-0.753-0.603-1.246c-0.147-0.487-0.22-1.058-0.22-1.713v-3.125
		c0-0.625,0.073-1.193,0.22-1.698c0.146-0.5,0.348-0.919,0.603-1.264c0.255-0.337,0.555-0.59,0.896-0.771
		c0.339-0.175,0.695-0.265,1.068-0.265h22.03v3.997H65.979c-0.342,0-0.603,0.092-0.782,0.282c-0.179,0.192-0.266,0.545-0.266,1.072
		v0.341c0,0.506,0.109,0.867,0.325,1.09c0.219,0.228,0.465,0.34,0.746,0.34h17.985c0.371,0,0.724,0.096,1.057,0.282
		c0.334,0.189,0.625,0.458,0.884,0.808c0.256,0.355,0.461,0.782,0.616,1.281c0.154,0.505,0.233,1.054,0.233,1.656v3.133
		c0,0.652-0.079,1.221-0.233,1.705c-0.155,0.49-0.36,0.912-0.616,1.246c-0.258,0.34-0.55,0.6-0.884,0.773
		c-0.333,0.174-0.686,0.264-1.057,0.264H61.958v-3.986h20.771V22.312z"/>
	<path fill="#1a1a1a" d="M111.404,26.294v-7.154H92.537v7.154h-2.975V12.023c0-0.626,0.078-1.195,0.23-1.7
		c0.154-0.498,0.363-0.917,0.629-1.262c0.266-0.338,0.563-0.591,0.906-0.771c0.339-0.174,0.688-0.264,1.045-0.264h19.191
		c0.358,0,0.707,0.096,1.049,0.286c0.337,0.186,0.643,0.449,0.904,0.787c0.266,0.344,0.473,0.763,0.625,1.263
		c0.156,0.507,0.235,1.058,0.235,1.66v14.271L111.404,26.294L111.404,26.294z M92.537,15.149h18.867v-1.433
		c0-0.503-0.088-0.912-0.268-1.22c-0.175-0.317-0.437-0.473-0.777-0.473H93.583c-0.388,0-0.658,0.156-0.812,0.473
		c-0.153,0.308-0.233,0.716-0.233,1.22L92.537,15.149L92.537,15.149z"/>
	<path fill="#1a1a1a" d="M139.012,26.294v-7.154h-18.867v7.154h-2.976V12.023c0-0.626,0.077-1.195,0.231-1.7
		c0.154-0.498,0.363-0.917,0.631-1.262c0.263-0.338,0.562-0.591,0.904-0.771c0.338-0.174,0.688-0.264,1.045-0.264h19.191
		c0.357,0,0.703,0.096,1.045,0.286c0.34,0.186,0.646,0.449,0.908,0.787c0.266,0.344,0.473,0.763,0.625,1.263
		c0.156,0.507,0.234,1.058,0.234,1.66v14.271L139.012,26.294L139.012,26.294z M120.145,15.149h18.867v-1.433
		c0-0.503-0.09-0.912-0.27-1.22c-0.176-0.317-0.436-0.473-0.776-0.473h-16.776c-0.388,0-0.657,0.156-0.813,0.473
		c-0.154,0.308-0.232,0.716-0.232,1.22V15.149L120.145,15.149z"/>
	<path fill="#1a1a1a" d="M167.824,8.311c0.34,0.186,0.645,0.449,0.908,0.787c0.261,0.344,0.471,0.763,0.625,1.263
		c0.154,0.507,0.233,1.058,0.233,1.66v2.6c0,0.575-0.114,1.089-0.34,1.544c-0.224,0.447-0.444,0.788-0.663,1.018
		c0.219,0.17,0.439,0.452,0.663,0.827c0.226,0.377,0.34,0.879,0.34,1.508v2.791c0,0.596-0.079,1.152-0.233,1.652
		s-0.364,0.92-0.625,1.262c-0.266,0.336-0.568,0.6-0.908,0.789c-0.342,0.189-0.689,0.283-1.045,0.283h-22.004V8.025h22.004
		C167.135,8.025,167.482,8.121,167.824,8.311z M147.749,15.147h17.798c0.28,0,0.526-0.092,0.742-0.265
		c0.219-0.177,0.324-0.518,0.324-1.018v-0.417c0-0.525-0.096-0.89-0.287-1.108c-0.194-0.208-0.463-0.319-0.803-0.319h-17.774V15.147
		L147.749,15.147z M147.749,22.306h17.821c0.34,0,0.602-0.076,0.777-0.213c0.18-0.137,0.266-0.471,0.266-0.996v-0.455
		c0-0.498-0.111-0.877-0.334-1.125c-0.223-0.254-0.478-0.377-0.756-0.377h-17.774V22.306L147.749,22.306z"/>
</g>
</svg>
